<svg xmlns="http://www.w3.org/2000/svg" width="56" height="28" viewBox="0 0 56 28">
    <g fill="#FFF" fill-rule="nonzero">
        <path d="M49.947 7.264c-.447.69-.864 1.38-1.282 2.127h-.062a54.278 54.278 0 0 0-1.309-2.072l-1.728-2.845h-4.083l4.146 5.94c2.693-.563 5.125-1.25 7.217-2.038l2.705-3.902h-3.994l-1.61 2.79zM33.612 4.474c-2.295 0-4.172.58-5.246 1.187l.715 2.21c.984-.58 2.476-.993 3.904-.993 2.563 0 2.952 1.462 2.952 2.347v.221c-3.864-.02-6.622.88-7.869 2.641h.011c1.69 0 3.351-.042 4.973-.122.863-.24 1.907-.32 2.976-.31v.112a89.74 89.74 0 0 0 3.576-.365v-1.239c0-2.955-1.342-5.69-5.992-5.69M21.467 4.474c-1.221 0-2.147.276-2.98.8-.656.387-1.252.94-1.76 1.687h-.058c-.627-1.492-2.117-2.487-4.025-2.487-2.474 0-3.784 1.243-4.47 2.292h-.091l-.18-1.99H4.776c.06 1.163.12 2.46.12 4.008v.147a48.7 48.7 0 0 0 3.59 1.02c.025-.277.079-.55.165-.808.357-.913 1.28-1.907 2.652-1.907 1.7 0 2.504 1.327 2.504 3.205v.572c1.158.185 2.351.348 3.577.488v-1.338c0-.387.06-.826.18-1.132.387-.966 1.311-1.795 2.564-1.795 1.758 0 2.592 1.327 2.592 3.563v1.145c1.173.063 2.367.106 3.577.128v-1.77c0-4.308-2.445-5.828-4.829-5.828M36.028 11.655"/>
        <path d="M32.191 9.786c.143-.03.29-.061.441-.088-.151.027-.298.058-.441.088M34.919 9.467c.098-.005.197-.011.3-.013-.103.002-.202.008-.3.013M34.165 9.51c.12-.01.238-.02.363-.028-.124.008-.243.02-.363.028M33.236 9.607a7.297 7.297 0 0 1 0 0M33.461 9.58c.135-.018.267-.034.405-.046-.138.012-.27.029-.405.045M34.757 11.692c.054-.004.106-.009.161-.01-.055.001-.107.006-.16.01M35.157 11.67c.081-.005.161-.007.246-.008-.085.002-.165.003-.246.008M8.555 9.505c-.005.025-.012.05-.016.077.004-.027.01-.052.016-.077M.236 7.02c1.08.56 2.308 1.088 3.667 1.572V4.777H.236V7.02zM52.276 9.133c-1.881.663-4 1.246-6.31 1.737l.094.13.28.379-5.038 6.85h4.054l1.668-2.679c.449-.745.894-1.409 1.314-2.18h.06c.415.744.832 1.462 1.31 2.18l1.76 2.68h4.172l-4.948-6.989 1.584-2.108zM28.634 11.443c-.052.049-.098.101-.15.152.07-.071.14-.14.216-.209-.021.02-.044.036-.066.057M28.827 11.274l-.027.023c.045-.039.095-.076.143-.114-.039.03-.08.06-.116.09M29.057 11.092c-.039.03-.076.061-.114.092.051-.042.103-.084.158-.123l-.044.031M28.46 11.618a3.604 3.604 0 0 0 0 0M33.052 11.965zM28.173 11.953a3.202 3.202 0 0 1 0 0M29.655 10.697a6.286 6.286 0 0 0-.431.272c-.007.004-.012.01-.021.014.145-.1.293-.195.452-.286zM39.604 11.924c-1.15.14-2.339.262-3.534.36l-.042.003v1.22c0 .247 0 .498-.09.745-.357.968-1.4 1.85-2.893 1.85-1.162 0-2.084-.608-2.084-1.933 0-.729.317-1.258.84-1.64-1.233.045-2.48.076-3.733.076h-.307a4.25 4.25 0 0 0-.438 1.922c0 2.044 1.64 4.006 4.56 4.006 1.908 0 3.428-.746 4.294-1.795h.087l.269 1.492h3.308c-.178-.83-.237-2.017-.237-3.233v-3.073zM28.069 12.087h.005a2.9 2.9 0 0 1 .062-.085c-.022.03-.046.056-.067.085M26.286 12.591a104.493 104.493 0 0 1-3.567-.129v5.767h3.577v-5.638h-.01zM17.324 12.014a78.97 78.97 0 0 1-3.518-.477v6.692h3.577V12.02l-.06-.006zM8.486 9.95V9.95v.002zM8.361 10.453c-1.223-.3-2.387-.63-3.466-.979v8.755h3.576v-7.748l-.11-.028zM3.73 9.08A30.275 30.275 0 0 1 .236 7.597v10.632h3.667V9.143L3.73 9.08zM55.722 21.78s-.023.339-.902 1.035c-1.742 1.179-6.483 3.368-16.159 1.612-12.643-2.293-18.696-3.254-18.696-3.254s-10.121-1.764-17.343 2.29c-1.907 1.123-2.67 2.133-2.62 2.434 0 0 4.093-3.728 16.674-1.786 12.576 1.94 20.66 4.924 31.566 2.82 3.841-.802 6.855-2.634 7.382-4.44.066-.206.123-.575.098-.71M3.981 1.871a1.871 1.871 0 1 1-3.743.002 1.871 1.871 0 0 1 3.743-.002"/>
    </g>
</svg>
