<?xml version="1.0" encoding="utf-8"?>
<!-- Generator: Adobe Illustrator 16.0.0, SVG Export Plug-In . SVG Version: 6.00 Build 0)  -->
<!DOCTYPE svg PUBLIC "-//W3C//DTD SVG 1.1//EN" "http://www.w3.org/Graphics/SVG/1.1/DTD/svg11.dtd">
<svg version="1.1" id="Layer_1" xmlns="http://www.w3.org/2000/svg" xmlns:xlink="http://www.w3.org/1999/xlink" x="0px" y="0px"
	 width="176px" height="96px" viewBox="0 0 176 96" enable-background="new 0 0 176 96" xml:space="preserve">
<g>
	<path fill="#15467B" d="M150.787,29.564c-1.283,1.996-2.48,3.993-3.681,6.152h-0.176c-1.194-1.998-2.39-3.918-3.759-5.994
		l-4.962-8.232h-11.724l11.904,17.184c7.731-1.625,14.715-3.615,20.72-5.895l7.767-11.289H155.41L150.787,29.564z"/>
	<path fill="#15467B" d="M103.89,21.49c-6.59,0-11.98,1.68-15.063,3.436l2.054,6.395c2.826-1.678,7.11-2.875,11.209-2.875
		c7.359,0,8.477,4.23,8.477,6.791v0.641c-11.095-0.061-19.015,2.547-22.592,7.641h0.031c4.854,0,9.621-0.123,14.279-0.355
		c2.475-0.691,5.476-0.926,8.542-0.895v0.324c3.5-0.291,6.933-0.644,10.269-1.057v-3.584C121.094,29.402,117.24,21.49,103.89,21.49"
		/>
	<path fill="#15467B" d="M69.021,21.49c-3.508,0-6.165,0.799-8.56,2.318c-1.88,1.117-3.593,2.719-5.051,4.877h-0.166
		c-1.798-4.315-6.077-7.195-11.557-7.195c-7.103,0-10.863,3.596-12.833,6.633h-0.262l-0.513-5.756h-8.986
		c0.175,3.362,0.343,7.115,0.343,11.592v0.428c3.218,1.064,6.666,2.049,10.312,2.949c0.07-0.801,0.225-1.588,0.473-2.338
		c1.023-2.641,3.676-5.516,7.614-5.516c4.883,0,7.189,3.838,7.189,9.271v1.657c3.323,0.535,6.75,1.004,10.27,1.41v-3.869
		c0-1.12,0.174-2.393,0.516-3.275c1.112-2.797,3.765-5.193,7.361-5.193c5.048,0,7.441,3.838,7.441,10.309v3.312
		c3.37,0.182,6.797,0.307,10.271,0.369v-5.121C82.883,25.889,75.865,21.49,69.021,21.49"/>
	<path fill="#15467B" d="M110.825,42.268c-0.431-0.006-0.857-0.002-1.277,0.002C109.968,42.266,110.395,42.262,110.825,42.268"/>
	<path fill="#15467B" d="M99.81,36.859c0.411-0.088,0.832-0.178,1.266-0.254C100.642,36.682,100.221,36.771,99.81,36.859"/>
	<path fill="#15467B" d="M107.641,35.936c0.282-0.014,0.565-0.031,0.86-0.037C108.206,35.904,107.923,35.922,107.641,35.936"/>
	<path fill="#15467B" d="M105.476,36.061c0.345-0.027,0.686-0.059,1.042-0.08C106.161,36.002,105.82,36.035,105.476,36.061"/>
	<path fill="#15467B" d="M102.811,36.342c-0.423,0.049-0.83,0.119-1.233,0.186C101.98,36.457,102.388,36.391,102.811,36.342"/>
	<path fill="#15467B" d="M103.456,36.262c0.388-0.049,0.767-0.098,1.162-0.133C104.223,36.164,103.844,36.213,103.456,36.262"/>
	<path fill="#15467B" d="M98.15,37.258c0.419-0.115,0.848-0.223,1.289-0.322C98.998,37.035,98.569,37.143,98.15,37.258"/>
	<path fill="#15467B" d="M107.177,42.373c0.155-0.01,0.303-0.025,0.464-0.029C107.479,42.348,107.332,42.363,107.177,42.373"/>
	<path fill="#15467B" d="M106.271,42.449c0.027-0.002,0.051-0.004,0.076-0.006C106.322,42.445,106.299,42.447,106.271,42.449"/>
	<path fill="#15467B" d="M108.324,42.309c0.234-0.014,0.464-0.018,0.706-0.023C108.788,42.291,108.559,42.295,108.324,42.309"/>
	<path fill="#15467B" d="M95.158,38.238c0.405-0.158,0.829-0.314,1.262-0.461C95.987,37.924,95.567,38.08,95.158,38.238"/>
	<path fill="#15467B" d="M93.818,38.822c0.399-0.188,0.797-0.367,1.226-0.537C94.615,38.455,94.218,38.635,93.818,38.822"/>
	<path fill="#15467B" d="M92.584,39.467c0.372-0.215,0.768-0.42,1.173-0.615C93.352,39.047,92.956,39.254,92.584,39.467"/>
	<path fill="#15467B" d="M31.948,36.045c-0.016,0.074-0.037,0.146-0.047,0.223C31.912,36.191,31.933,36.119,31.948,36.045"/>
	<path fill="#15467B" d="M8.063,28.857c3.099,1.621,6.626,3.148,10.529,4.547V22.367H8.063V28.857z"/>
	<path fill="#15467B" d="M157.475,34.971c-5.4,1.918-11.484,3.604-18.119,5.024l0.273,0.376l0.805,1.096l-14.465,19.82h11.639
		l4.789-7.752c1.287-2.156,2.566-4.076,3.772-6.309h0.17c1.194,2.152,2.391,4.23,3.765,6.309l5.051,7.752h11.979L152.928,41.07
		L157.475,34.971z"/>
	<path fill="#15467B" d="M89.598,41.652c-0.151,0.143-0.283,0.293-0.431,0.441c0.197-0.207,0.403-0.408,0.618-0.605
		C89.725,41.545,89.659,41.594,89.598,41.652"/>
	<path fill="#15467B" d="M90.151,41.164c-0.031,0.025-0.054,0.043-0.079,0.068c0.132-0.113,0.273-0.221,0.413-0.33
		C90.372,40.988,90.252,41.074,90.151,41.164"/>
	<path fill="#15467B" d="M90.811,40.639c-0.112,0.084-0.219,0.176-0.327,0.264c0.146-0.119,0.294-0.242,0.451-0.355
		C90.894,40.574,90.854,40.607,90.811,40.639"/>
	<path fill="#15467B" d="M89.097,42.16c-0.026,0.038-0.063,0.073-0.101,0.109c0.059-0.059,0.114-0.118,0.171-0.176
		C89.147,42.113,89.12,42.139,89.097,42.16"/>
	<polygon fill="#15467B" points="102.283,43.164 102.283,43.164 102.283,43.162 	"/>
	<path fill="#15467B" d="M88.273,43.127c-0.037,0.049-0.07,0.098-0.099,0.143c0.197-0.273,0.403-0.543,0.634-0.797
		C88.62,42.686,88.444,42.908,88.273,43.127"/>
	<path fill="#15467B" d="M92.527,39.496c-0.434,0.25-0.843,0.515-1.238,0.787c-0.018,0.012-0.033,0.027-0.06,0.041
		C91.646,40.035,92.072,39.758,92.527,39.496L92.527,39.496z"/>
	<path fill="#15467B" d="M121.094,43.043c-3.305,0.406-6.716,0.758-10.148,1.041l-0.12,0.012v3.527c0,0.717,0,1.441-0.26,2.156
		c-1.023,2.802-4.019,5.354-8.304,5.354c-3.336,0-5.985-1.76-5.985-5.594c0-2.107,0.913-3.641,2.413-4.744
		c-3.539,0.131-7.119,0.219-10.716,0.219h-0.882c-0.812,1.645-1.257,3.49-1.257,5.562c0,5.914,4.709,11.59,13.092,11.59
		c5.479,0,9.841-2.158,12.327-5.195h0.25l0.773,4.316h9.497c-0.511-2.398-0.68-5.836-0.68-9.352V43.043z"/>
	<path fill="#15467B" d="M87.973,43.518h0.013c0.061-0.084,0.118-0.166,0.181-0.248C88.104,43.357,88.033,43.432,87.973,43.518"/>
	<path fill="#15467B" d="M82.854,44.975c-3.454-0.068-6.897-0.191-10.242-0.373v16.686h10.271V44.975H82.854z"/>
	<path fill="#15467B" d="M57.124,43.307c-3.47-0.396-6.863-0.861-10.1-1.381v19.361h10.27V43.323L57.124,43.307z"/>
	<path fill="#15467B" d="M31.748,37.336V37.33V37.336z"/>
	<path fill="#15467B" d="M31.391,38.789c-3.513-0.869-6.855-1.821-9.951-2.832v0.266v25.064h10.268V39.108v-0.239L31.391,38.789z"/>
	<path fill="#15467B" d="M18.095,34.816c-3.695-1.328-7.057-2.773-10.031-4.291v30.762h10.529V35.186v-0.188L18.095,34.816z"/>
	<path fill="#15467B" d="M167.367,71.561c0,0-0.065,0.979-2.59,2.992c-5,3.412-18.612,9.746-46.392,4.664
		c-36.299-6.633-53.68-9.414-53.68-9.414s-29.06-5.102-49.795,6.627c-5.475,3.248-7.664,6.17-7.519,7.039
		c0,0,11.75-10.783,47.869-5.166c36.108,5.613,59.318,14.246,90.63,8.161c11.028-2.323,19.683-7.622,21.194-12.849
		C167.278,73.021,167.44,71.953,167.367,71.561"/>
	<path fill="#15467B" d="M18.814,13.961c0,2.99-2.409,5.416-5.375,5.416c-2.967,0-5.371-2.426-5.371-5.416
		c0-2.989,2.403-5.414,5.371-5.414C16.406,8.547,18.814,10.972,18.814,13.961"/>
</g>
</svg>
