<svg id="Layer_1" data-name="Layer 1" xmlns="http://www.w3.org/2000/svg" xmlns:xlink="http://www.w3.org/1999/xlink" viewBox="0 0 12.2 12.17"><defs><style>.cls-1{fill:none;}.cls-2{clip-path:url(#clip-path);}.cls-3{fill:#ccc;}</style><clipPath id="clip-path" transform="translate(-5.9 -5.91)"><rect class="cls-1" width="24" height="24"/></clipPath></defs><title>cerrar</title><g class="cls-2"><path class="cls-3" d="M13,12l4.86-4.86a.73.73,0,0,0,0-1,.79.79,0,0,0-1,0L12,11,7.14,6.11a.79.79,0,0,0-1,0,.72.72,0,0,0,0,1L11,12,6.11,16.85a.73.73,0,0,0,0,1,.78.78,0,0,0,1,0L12,13l4.86,4.86a.73.73,0,0,0,.51.21.72.72,0,0,0,.51-1.23Z" transform="translate(-5.9 -5.91)"/></g></svg>