<?xml version="1.0" encoding="utf-8"?>
<!-- Generator: Adobe Illustrator 16.0.0, SVG Export Plug-In . SVG Version: 6.00 Build 0)  -->
<!DOCTYPE svg PUBLIC "-//W3C//DTD SVG 1.1//EN" "http://www.w3.org/Graphics/SVG/1.1/DTD/svg11.dtd">
<svg version="1.1" id="Layer_1" xmlns="http://www.w3.org/2000/svg" xmlns:xlink="http://www.w3.org/1999/xlink" x="0px" y="0px"
	 width="24px" height="24px" viewBox="0 0 24 24" enable-background="new 0 0 24 24" xml:space="preserve">
<path fill="#195184" d="M12.989,11.996l5.508-5.507c0.271-0.272,0.271-0.716,0-0.989c-0.255-0.253-0.739-0.253-0.987,0l-5.509,5.507
	L6.497,5.5c-0.254-0.254-0.739-0.254-0.989,0C5.374,5.633,5.3,5.81,5.3,5.998c0,0.186,0.073,0.361,0.205,0.492l5.506,5.509
	l-5.507,5.506c-0.132,0.133-0.205,0.309-0.205,0.494c0,0.184,0.073,0.361,0.206,0.496c0.126,0.125,0.307,0.195,0.496,0.195
	s0.369-0.07,0.494-0.197L12,12.986l5.509,5.506c0.125,0.125,0.306,0.195,0.494,0.195c0.188,0,0.368-0.07,0.495-0.195
	c0.269-0.273,0.269-0.719-0.002-0.99L12.989,11.996z"/>
</svg>
