<svg xmlns="http://www.w3.org/2000/svg" width="106" height="53" viewBox="0 0 106 53">
    <g fill="#FFF" fill-rule="nonzero">
        <path d="M94.542 13.75a72.244 72.244 0 0 0-2.427 4.026H92a102.74 102.74 0 0 0-2.477-3.922L86.25 8.468h-7.729l7.848 11.242c5.098-1.063 9.701-2.365 13.66-3.856l5.12-7.386h-7.56l-3.047 5.283zM63.623 8.468c-4.344 0-7.897 1.1-9.93 2.248l1.353 4.184c1.863-1.098 4.687-1.881 7.39-1.881 4.852 0 5.588 2.767 5.588 4.443v.419c-7.315-.04-12.536 1.666-14.895 4.999h.02c3.2 0 6.344-.081 9.415-.233 1.631-.452 3.61-.605 5.631-.585v.212c2.308-.19 4.571-.421 6.77-.692v-2.345c0-5.592-2.54-10.769-11.342-10.769M40.635 8.468c-2.313 0-4.065.523-5.643 1.517-1.24.73-2.37 1.778-3.33 3.19h-.11c-1.186-2.823-4.006-4.707-7.62-4.707-4.682 0-7.161 2.353-8.46 4.34h-.173l-.338-3.766H9.038c.115 2.2.226 4.655.226 7.584v.28a92.183 92.183 0 0 0 6.798 1.93 6.71 6.71 0 0 1 .312-1.53c.674-1.728 2.423-3.609 5.02-3.609 3.218 0 4.739 2.511 4.739 6.066v1.084c2.191.35 4.45.657 6.77.923v-2.532c0-.733.115-1.565.34-2.143.734-1.83 2.483-3.398 4.854-3.398 3.328 0 4.906 2.511 4.906 6.745v2.167c2.222.119 4.48.2 6.77.242V19.5c0-8.154-4.626-11.032-9.138-11.032M68.196 22.062"/>
        <path d="M60.933 18.524c.271-.058.549-.117.835-.167-.286.05-.564.11-.835.167M66.096 17.919c.186-.009.374-.02.567-.025-.194.005-.38.016-.567.025M64.669 18c.227-.017.452-.037.687-.051-.235.014-.46.035-.687.052M62.911 18.185c-.278.032-.547.078-.812.122.266-.046.534-.09.812-.122M63.337 18.133c.256-.033.506-.064.767-.087-.261.023-.512.055-.767.087M65.79 22.131c.103-.006.2-.016.305-.02-.105.004-.202.014-.305.02M66.547 22.089c.154-.009.305-.012.465-.015-.16.004-.31.006-.465.015M16.194 17.99c-.01.05-.024.097-.03.147.006-.05.02-.098.03-.146M.447 13.288c2.043 1.061 4.369 2.06 6.941 2.975V9.042H.448v4.246zM98.95 17.288c-3.56 1.255-7.57 2.357-11.944 3.287l.18.246.53.717-9.536 12.968h7.673l3.157-5.072c.849-1.411 1.692-2.667 2.487-4.127h.112c.788 1.408 1.576 2.767 2.482 4.127l3.33 5.072h7.897l-9.365-13.228 2.997-3.99zM54.2 21.66c-.1.093-.186.192-.283.288.13-.135.266-.267.407-.396-.039.037-.082.069-.123.108M54.566 21.34c-.02.016-.036.028-.052.044.086-.073.18-.144.272-.216-.075.057-.153.113-.22.172M55.001 20.996c-.074.055-.144.116-.216.173.097-.078.195-.159.298-.232-.027.017-.054.039-.082.06M53.871 21.992c-.017.024-.042.048-.066.072l.112-.116-.046.044M62.564 22.649v-.002zM53.328 22.625a6.062 6.062 0 0 1 0 0M56.133 20.249c-.286.163-.556.336-.817.514-.012.008-.021.018-.04.027.276-.188.556-.37.857-.541zM74.965 22.57c-2.178.265-4.427.495-6.69.68l-.08.008v2.308c0 .469 0 .943-.17 1.41-.675 1.833-2.65 3.503-5.476 3.503-2.2 0-3.945-1.151-3.945-3.66 0-1.378.601-2.381 1.59-3.103-2.333.085-4.693.143-7.065.143h-.581c-.536 1.076-.83 2.284-.83 3.64 0 3.868 3.105 7.582 8.632 7.582 3.612 0 6.488-1.412 8.127-3.399h.165l.51 2.824h6.261c-.337-1.569-.449-3.818-.449-6.118v-5.819h.001zM53.13 22.88h.01a5.49 5.49 0 0 1 .118-.162c-.041.057-.088.106-.128.162M49.755 23.833a197.79 197.79 0 0 1-6.752-.244v10.917h6.77V23.833h-.018zM32.791 22.742c-2.287-.26-4.525-.564-6.659-.904v12.668h6.771V22.753l-.112-.011zM16.062 18.835v-.003.003zM15.827 19.786a94.202 94.202 0 0 1-6.56-1.853v16.572h6.768V19.839l-.208-.053zM7.06 17.187c-2.436-.869-4.652-1.815-6.613-2.808v20.127h6.941V17.306l-.327-.12zM105.473 41.227s-.043.64-1.707 1.958c-3.297 2.232-12.271 6.376-30.585 3.051-23.932-4.339-35.39-6.159-35.39-6.159S18.633 36.74 4.962 44.413C1.352 46.538-.09 48.45.005 49.019c0 0 7.747-7.056 31.56-3.38 23.805 3.672 39.107 9.32 59.75 5.34 7.27-1.521 12.976-4.988 13.973-8.407.126-.39.234-1.088.185-1.345M7.535 3.542a3.542 3.542 0 1 1-7.085 0A3.541 3.541 0 0 1 3.992 0a3.544 3.544 0 0 1 3.544 3.542"/>
    </g>
</svg>
