<?xml version="1.0" encoding="utf-8"?>
<!-- Generator: Adobe Illustrator 16.0.0, SVG Export Plug-In . SVG Version: 6.00 Build 0)  -->
<!DOCTYPE svg PUBLIC "-//W3C//DTD SVG 1.1//EN" "http://www.w3.org/Graphics/SVG/1.1/DTD/svg11.dtd">
<svg version="1.1" xmlns="http://www.w3.org/2000/svg" xmlns:xlink="http://www.w3.org/1999/xlink" x="0px" y="0px" width="24px"
	 height="24px" viewBox="0 0 24 24" enable-background="new 0 0 24 24" xml:space="preserve">
<g id="ANTES" display="none">
	<g id="I3_x5F_1-2_x5F_Hacer_x5F_publicacion_x5F_Desactivado_1_">
	</g>
	<g id="I3_x5F_1_x5F_Comunidad_x5F_Ejemplo">
	</g>
	<g id="I3_x5F_1-2_x5F_Hacer_x5F_publicacion_x5F_Desactivado_2_">
	</g>
</g>
<g id="Guias">
</g>
<g id="COMUNIDAD">
	<g id="I3_x5F_1_x5F_Comunidad" display="none">
	</g>
	<g id="I3_x5F_1-1_x5F_Comunidad_x5F_Primera_x5F_vez" display="none">
	</g>
</g>
<g id="PUBLICAR">
	<g id="I3_x5F_1-2-1_x5F_Toast_x5F_imagenes" display="none">
	</g>
	<g id="I3_x5F_1-2_x5F_Hacer_x5F_publicacion_x5F_Desactivado_3_" display="none">
	</g>
	<g id="I3_x5F_1-2_x5F_Hacer_x5F_publicacion_x5F_Activado_2_" display="none">
	</g>
	<g id="I3_x5F_1_x5F_Comunidad_x5F_Ejemplo_1_">
	</g>
	<g id="I3_x5F_1-3_x5F_Responder_x5F_duda_x5F_Desactivado" display="none">
	</g>
	<g id="I3_x5F_1-3_x5F_Responder_x5F_duda_x5F_Activado" display="none">
	</g>
	<g id="I3_x5F_1-3_x5F_Responder_x5F_duda_x5F_Activado_x5F_Imagen" display="none">
	</g>
	<g id="I3_x5F_1-4_x5F_Ver_x5F_comentarios_1_" display="none">
	</g>
</g>
<g id="CALIFICADOS">
	<g id="I3_x5F_2_x5F_Calificados" display="none">
	</g>
	<g id="I3_x5F_2-1_x5F_Ver_x5F_Calificado" display="none">
	</g>
</g>
<g id="NOTIFICACIONES">
	<g id="I3_x5F_3_x5F_Notificaciones" display="none">
	</g>
	<g>
		<path fill-rule="evenodd" clip-rule="evenodd" fill="#FFFFFF" d="M2.755,7.095h18.49C21.662,7.095,22,6.757,22,6.339
			c0-0.416-0.338-0.754-0.754-0.754H2.755C2.338,5.585,2,5.923,2,6.339C2,6.757,2.338,7.095,2.755,7.095"/>
		<path fill-rule="evenodd" clip-rule="evenodd" fill="#FFFFFF" d="M2.755,12.755h18.49c0.417,0,0.754-0.338,0.754-0.754
			c0-0.418-0.338-0.756-0.754-0.756H2.755C2.338,11.245,2,11.583,2,12.001C2,12.417,2.338,12.755,2.755,12.755"/>
		<path fill-rule="evenodd" clip-rule="evenodd" fill="#FFFFFF" d="M2.755,18.415h18.49c0.417,0,0.754-0.338,0.754-0.754
			s-0.338-0.754-0.754-0.754H2.755C2.338,16.907,2,17.245,2,17.661S2.338,18.415,2.755,18.415"/>
	</g>
</g>
</svg>
