<svg xmlns="http://www.w3.org/2000/svg" width="1360" height="577" viewBox="0 0 1360 577">
    <defs>
        <linearGradient id="a" x1="76.787%" x2="31.287%" y1="53.141%" y2="53.141%">
            <stop offset="0%" stop-color="#195184"/>
            <stop offset="100%" stop-color="#15467B"/>
        </linearGradient>
    </defs>
    <g fill="none" fill-rule="evenodd">
        <path fill="#FAFCFF" d="M0 0h1373v577H0z"/>
        <path fill="url(#a)" fill-rule="nonzero" d="M1471.855 436.176H867.853L575.05 407.05l-191.707-4.24L97 436.176V.664h1374.855z" transform="translate(-103 -13)"/>
        <path fill="#15467B" fill-rule="nonzero" d="M1696.351 54.208c-71.881 243.58-282.175 423.07-541.087 482.169-218.514 49.878-380.186 50.314-650.28-174.252 121.121 38.172 284.47 96.082 494.821-8.089 276.119-127.387 468.543-286.57 696.546-299.828z"/>
        <path fill="#195184" fill-rule="nonzero" d="M686.886 489.106c-126.882-125.88-263.118-212.283-440.051-221.991-217.566-11.944-363.085 78.117-347.769 214.193 15.317 136.075 70.243 18.465 347.769-65.035 191.96-59.208 358.054 27.818 414.905 59.209 5.622 3.278 19.672 10.874 25.146 13.624z"/>
    </g>
</svg>
